<svg width="24" height="15" fill="none" xmlns="http://www.w3.org/2000/svg"><path d="M23.291 2.65c-.94-.894-2.442-.894-3.59-.308a26.925 26.925 0 0 0-6.116 4.42l.408-4.504S14.21.64 12.392.11c-1.122-.326-2.325.093-3.175 1.06A29.125 29.125 0 0 0 5.119 7.58c-.208-.735-.262-1.116-.516-1.842-.615-1.74-2.143-1.768-3.012-1.442-.86.316-2.116 1.423-1.357 3.22.96 2.288 2.198 4.437 3.293 6.652 0 .01.009.01.009.018.226.456.706.773 1.266.81a1.761 1.761 0 0 0 1.81-1.284c.642-2.224 1.564-4.215 2.776-6.16l.435 4.727v.019c.054.511.37.986.868 1.237.724.363 1.61.158 2.108-.512 1.383-1.833 2.94-3.34 4.776-4.689a866.15 866.15 0 0 1-1.285 4.568c-.199.82.29 1.638 1.031 1.936.742.298 1.647.065 2.054-.689 0 0 3.247-6.513 4.341-8.83.29-.558.607-1.684-.425-2.67z" fill="#000"/></svg>